<?xml version="1.0" encoding="UTF-8"?>
<svg fill="none" viewBox="0 0 86 86" xmlns="http://www.w3.org/2000/svg">
<path d="m43 87c-24.301 0-44-19.699-44-44s19.699-44 44-44 44 19.699 44 44-19.699 44-44 44z" clip-rule="evenodd" fill="#DCD7D5" fill-rule="evenodd"/>
<mask id="a" x="-1" y="-1" width="88" height="88" mask-type="alpha" maskUnits="userSpaceOnUse">
<path d="m43 87c-24.301 0-44-19.699-44-44s19.699-44 44-44 44 19.699 44 44-19.699 44-44 44z" clip-rule="evenodd" fill="#fff" fill-rule="evenodd"/>
</mask>
<g clip-rule="evenodd" fill-rule="evenodd" mask="url(#a)">
<path d="m43 53c8.8366 0 16-8.9543 16-20s-7.1634-20-16-20-16 8.9543-16 20 7.1634 20 16 20z" fill="#fff"/>
<path d="m34 50v8l-19 8-5 5s30 33 66 1c-2-4-7-7-7-7l-16-6-1.7975-3 0.7975-7-18 1z" fill="#fff"/>
<path d="m42.902 51.298c-6.355 0-13.93-3.359-13.93-19.361v-3.4929c0-7.4213 6.2486-13.46 13.93-13.46 7.6822 0 13.931 6.0385 13.931 13.46v3.4929c0 16.845-8.7281 19.361-13.931 19.361zm33.118 19c-1.5261-2.9135-4.1031-5.1833-7.2617-6.3905l-14.218-5.4353c-1.2508-0.4782-2.059-1.6101-2.059-2.8828v-5.5821c4.104-3.488 6.34-9.6633 6.34-18.071v-3.4929c0-8.5155-7.1414-15.444-15.919-15.444-8.7769 0-15.918 6.9283-15.918 15.444v3.4929c0 8.5809 2.1992 14.756 6.3401 18.193v5.4601c0 1.2727-0.8083 2.4046-2.06 2.8828l-14.217 5.4353c-3.1596 1.2082-5.7375 3.477-7.2696 6.4084l-4.2771 8.5939 1.7806 0.8829 4.2682-8.577c1.2994-2.4831 3.5035-4.4205 6.2088-5.4551l14.217-5.4353c2.0282-0.7748 3.3376-2.6338 3.3376-4.7359v-4.1298c2.1475 1.1904 4.6757 1.8223 7.5898 1.8223 2.9011 0 5.4343-0.6606 7.5907-1.8927v4.2002c0 2.1021 1.3094 3.9601 3.3366 4.7359l14.218 5.4353c2.7042 1.0336 4.9084 2.9711 6.2038 5.4451l4.4759 8.7943 1.7727-0.8988-4.4799-8.8032z" fill="#4F352F"/>
</g>
</svg>
