<?xml version="1.0" encoding="UTF-8"?>
<svg fill="none" viewBox="0 0 17 12" xmlns="http://www.w3.org/2000/svg">
<path d="m3.5 12c-0.89548-0.0012-1.7564-0.3455-2.4057-0.9622-0.64929-0.6167-1.0375-1.4588-1.0848-2.353-0.047274-0.89423 0.25-1.7726 0.83065-2.4543 0.58065-0.6817 1.4005-1.1149 2.2909-1.2105-0.26217-1.0281-0.10518-2.1183 0.43643-3.0306 0.5416-0.91236 1.4235-1.5722 2.4516-1.8344 1.0281-0.26217 2.1183-0.10518 3.0306 0.43643 0.91237 0.5416 1.5722 1.4235 1.8344 2.4516 0.6115-0.08513 1.2339-0.04355 1.8286 0.12217s1.1489 0.45203 1.6282 0.84112 0.8734 0.87263 1.1578 1.4206 0.453 1.1485 0.4954 1.7644-0.0425 1.2339-0.2492 1.8156c-0.2067 0.58171-0.5309 1.1146-0.9524 1.5657-0.4216 0.451-0.9314 0.8105-1.4978 1.0561-0.5664 0.2455-1.1772 0.3719-1.7946 0.3713h-8z" fill="#535353"/>
</svg>
