<svg width="16" height="16" viewBox="0 0 16 16" fill="none" xmlns="http://www.w3.org/2000/svg">
<path d="M16 1.00001C15.9999 0.852115 15.967 0.706085 15.9037 0.572436C15.8404 0.438788 15.7482 0.320848 15.6338 0.227114C15.5194 0.133381 15.3856 0.0661868 15.2422 0.0303737C15.0987 -0.00543946 14.949 -0.00898018 14.804 0.0200065L4.804 2.02001C4.57739 2.0653 4.37346 2.18768 4.22689 2.36634C4.08031 2.545 4.00014 2.76891 4 3.00001V12.114C3.67217 12.0376 3.33661 11.9994 3 12C1.343 12 0 12.895 0 14C0 15.105 1.343 16 3 16C4.657 16 6 15.105 6 14V5.82001L14 4.22001V10.114C13.6722 10.0376 13.3366 9.99936 13 10C11.343 10 10 10.895 10 12C10 13.105 11.343 14 13 14C14.657 14 16 13.105 16 12V1.00001Z" fill="#FDE2E6"/>
</svg>
