<svg width="21" height="19" viewBox="0 0 21 19" fill="none" xmlns="http://www.w3.org/2000/svg">
<path fill-rule="evenodd" clip-rule="evenodd" d="M20.1 12.6V3.00001C20.1 2.36349 19.8471 1.75304 19.397 1.30295C18.947 0.852862 18.3365 0.600006 17.7 0.600006H3.29999C2.66347 0.600006 2.05302 0.852862 1.60294 1.30295C1.15285 1.75304 0.899994 2.36349 0.899994 3.00001V12.6C0.899994 13.2365 1.15285 13.847 1.60294 14.2971C2.05302 14.7471 2.66347 15 3.29999 15H6.89999L10.5 18.6L14.1 15H17.7C18.3365 15 18.947 14.7471 19.397 14.2971C19.8471 13.847 20.1 13.2365 20.1 12.6ZM4.49999 5.40001C4.49999 5.08175 4.62642 4.77652 4.85147 4.55148C5.07651 4.32643 5.38173 4.20001 5.69999 4.20001H15.3C15.6183 4.20001 15.9235 4.32643 16.1485 4.55148C16.3736 4.77652 16.5 5.08175 16.5 5.40001C16.5 5.71827 16.3736 6.02349 16.1485 6.24853C15.9235 6.47358 15.6183 6.60001 15.3 6.60001H5.69999C5.38173 6.60001 5.07651 6.47358 4.85147 6.24853C4.62642 6.02349 4.49999 5.71827 4.49999 5.40001ZM5.69999 9.00001C5.38173 9.00001 5.07651 9.12643 4.85147 9.35148C4.62642 9.57652 4.49999 9.88175 4.49999 10.2C4.49999 10.5183 4.62642 10.8235 4.85147 11.0485C5.07651 11.2736 5.38173 11.4 5.69999 11.4H9.29999C9.61825 11.4 9.92348 11.2736 10.1485 11.0485C10.3736 10.8235 10.5 10.5183 10.5 10.2C10.5 9.88175 10.3736 9.57652 10.1485 9.35148C9.92348 9.12643 9.61825 9.00001 9.29999 9.00001H5.69999Z" fill="#535353"/>
</svg>
