<?xml version="1.0" encoding="UTF-8"?>
<svg fill="none" viewBox="0 0 20 20" xmlns="http://www.w3.org/2000/svg">
<path d="m10 19.6c2.5461 0 4.9879-1.0114 6.7882-2.8118 1.8004-1.8003 2.8118-4.2421 2.8118-6.7882 0-2.5461-1.0114-4.9879-2.8118-6.7882-1.8003-1.8004-4.2421-2.8118-6.7882-2.8118-2.5461 0-4.9879 1.0114-6.7882 2.8118s-2.8118 4.2421-2.8118 6.7882c0 2.5461 1.0114 4.9879 2.8118 6.7882 1.8004 1.8004 4.2422 2.8118 6.7882 2.8118zm1.2-13.2c0-0.31826-0.1264-0.62348-0.3515-0.84853-0.225-0.22504-0.5302-0.35147-0.84851-0.35147-0.31826 0-0.62348 0.12643-0.84852 0.35147-0.22505 0.22505-0.35148 0.53027-0.35148 0.84853v2.4h-2.4c-0.31826 0-0.62348 0.12643-0.84852 0.35147-0.22505 0.22505-0.35148 0.53027-0.35148 0.84853 0 0.3183 0.12643 0.6235 0.35148 0.8485 0.22504 0.2251 0.53026 0.3515 0.84852 0.3515h2.4v2.4c0 0.3183 0.12643 0.6235 0.35148 0.8485 0.22504 0.2251 0.53026 0.3515 0.84852 0.3515 0.31831 0 0.62351-0.1264 0.84851-0.3515 0.2251-0.225 0.3515-0.5302 0.3515-0.8485v-2.4h2.4c0.3183 0 0.6235-0.1264 0.8485-0.3515 0.2251-0.225 0.3515-0.5302 0.3515-0.8485 0-0.31826-0.1264-0.62348-0.3515-0.84853-0.225-0.22504-0.5302-0.35147-0.8485-0.35147h-2.4v-2.4z" clip-rule="evenodd" fill="#818589" fill-rule="evenodd"/>
</svg>
