<?xml version="1.0" encoding="UTF-8"?>
<svg fill="none" viewBox="0 0 25 25" xmlns="http://www.w3.org/2000/svg">
<path d="m24.669 17.269c-2.3704 1.0722-5.0112 1.3966-7.5706 0.93-2.5594-0.4665-4.9159-1.7019-6.7555-3.5415-1.8396-1.8396-3.075-4.1961-3.5415-6.7555-0.46655-2.5594-0.14213-5.2002 0.93004-7.5706-1.8871 0.85282-3.5392 2.1507-4.8144 3.7823s-2.1356 3.5483-2.5073 5.5855c-0.37171 2.0372-0.24365 4.1342 0.3732 6.1111 0.61685 1.9768 1.7041 3.7745 3.1684 5.2389 1.4643 1.4643 3.262 2.5515 5.2389 3.1684 1.9769 0.6168 4.0739 0.7449 6.1111 0.3731 2.0372-0.3717 3.9538-1.2321 5.5855-2.5073 1.6316-1.2752 2.9295-2.9273 3.7823-4.8144z" fill="#FF244C"/>
</svg>
