<svg width="16" height="10" viewBox="0 0 16 10" fill="none" xmlns="http://www.w3.org/2000/svg">
<path fill-rule="evenodd" clip-rule="evenodd" d="M5.70703 9.70701C5.5195 9.89448 5.26519 9.9998 5.00003 9.9998C4.73487 9.9998 4.48056 9.89448 4.29303 9.70701L0.293031 5.70701C0.105559 5.51948 0.000244141 5.26517 0.000244141 5.00001C0.000244141 4.73485 0.105559 4.48054 0.293031 4.29301L4.29303 0.293011C4.48163 0.110853 4.73423 0.010058 4.99643 0.0123364C5.25863 0.0146148 5.50944 0.119784 5.69485 0.305192C5.88026 0.4906 5.98543 0.741413 5.9877 1.00361C5.98998 1.26581 5.88919 1.51841 5.70703 1.70701L3.41403 4.00001H15C15.2652 4.00001 15.5196 4.10537 15.7071 4.2929C15.8947 4.48044 16 4.73479 16 5.00001C16 5.26523 15.8947 5.51958 15.7071 5.70712C15.5196 5.89465 15.2652 6.00001 15 6.00001H3.41403L5.70703 8.29301C5.8945 8.48054 5.99982 8.73485 5.99982 9.00001C5.99982 9.26517 5.8945 9.51948 5.70703 9.70701Z" fill="#535353"/>
</svg>
