<svg width="21" height="20" viewBox="0 0 21 20" fill="none" xmlns="http://www.w3.org/2000/svg">
<path fill-rule="evenodd" clip-rule="evenodd" d="M12.288 1.80399C11.832 -0.0680061 9.16797 -0.0680061 8.71197 1.80399C8.64389 2.08529 8.51035 2.34654 8.32224 2.56649C8.13412 2.78643 7.89673 2.95885 7.62938 3.06972C7.36204 3.18058 7.0723 3.22677 6.78373 3.2045C6.49517 3.18224 6.21594 3.09216 5.96877 2.94159C4.32237 1.93839 2.43837 3.82239 3.44157 5.46879C4.08957 6.53199 3.51477 7.91919 2.30517 8.21319C0.431969 8.66799 0.431969 11.3332 2.30517 11.7868C2.58654 11.855 2.84784 11.9886 3.06778 12.1769C3.28772 12.3651 3.46009 12.6027 3.57086 12.8702C3.68162 13.1377 3.72764 13.4275 3.70517 13.7162C3.6827 14.0048 3.59239 14.2841 3.44157 14.5312C2.43837 16.1776 4.32237 18.0616 5.96877 17.0584C6.2159 16.9076 6.49515 16.8173 6.78379 16.7948C7.07243 16.7723 7.3623 16.8183 7.62978 16.9291C7.89727 17.0399 8.13482 17.2122 8.32308 17.4322C8.51135 17.6521 8.645 17.9134 8.71317 18.1948C9.16797 20.068 11.8332 20.068 12.2868 18.1948C12.3552 17.9136 12.489 17.6524 12.6773 17.4327C12.8656 17.2129 13.1031 17.0406 13.3705 16.9299C13.6379 16.8192 13.9276 16.7731 14.2162 16.7954C14.5048 16.8177 14.784 16.9078 15.0312 17.0584C16.6776 18.0616 18.5616 16.1776 17.5584 14.5312C17.4078 14.284 17.3177 14.0048 17.2954 13.7162C17.2731 13.4277 17.3191 13.1379 17.4299 12.8705C17.5406 12.6031 17.7128 12.3656 17.9326 12.1773C18.1524 11.989 18.4135 11.8552 18.6948 11.7868C20.568 11.332 20.568 8.66679 18.6948 8.21319C18.4134 8.14503 18.1521 8.01137 17.9322 7.82311C17.7122 7.63484 17.5398 7.3973 17.4291 7.12981C17.3183 6.86232 17.2723 6.57246 17.2948 6.28382C17.3172 5.99518 17.4076 5.71592 17.5584 5.46879C18.5616 3.82239 16.6776 1.93839 15.0312 2.94159C14.784 3.09241 14.5048 3.18273 14.2161 3.2052C13.9275 3.22766 13.6376 3.18164 13.3702 3.07088C13.1027 2.96012 12.8651 2.78775 12.6769 2.56781C12.4886 2.34786 12.3549 2.08657 12.2868 1.80519L12.288 1.80399ZM10.5 13.6C11.4547 13.6 12.3704 13.2207 13.0456 12.5456C13.7207 11.8704 14.1 10.9548 14.1 9.99999C14.1 9.04521 13.7207 8.12954 13.0456 7.45441C12.3704 6.77928 11.4547 6.39999 10.5 6.39999C9.54519 6.39999 8.62951 6.77928 7.95438 7.45441C7.27925 8.12954 6.89997 9.04521 6.89997 9.99999C6.89997 10.9548 7.27925 11.8704 7.95438 12.5456C8.62951 13.2207 9.54519 13.6 10.5 13.6Z" fill="#535353"/>
</svg>
